<?xml version="1.0" encoding="UTF-8" standalone="no"?>
<!DOCTYPE svg PUBLIC "-//W3C//DTD SVG 1.1//EN"
 "http://www.w3.org/Graphics/SVG/1.1/DTD/svg11.dtd">
<!-- Generated by graphviz version 2.40.1 (20161225.0304)
 -->
<!-- Title: casbin_rule Pages: 1 -->
<svg width="261pt" height="345pt"
 viewBox="0.00 0.00 261.00 345.00" xmlns="http://www.w3.org/2000/svg" xmlns:xlink="http://www.w3.org/1999/xlink">
<g id="graph0" class="graph" transform="scale(1 1) rotate(0) translate(4 341)">
<title>casbin_rule</title>
<polygon fill="#ffffff" stroke="transparent" points="-4,4 -4,-341 257,-341 257,4 -4,4"/>
<!-- casbin_rule -->
<g id="node1" class="node">
<title>casbin_rule</title>
<polygon fill="#efefef" stroke="transparent" points="46.5,-255.5 46.5,-290.5 207.5,-290.5 207.5,-255.5 46.5,-255.5"/>
<polygon fill="none" stroke="#000000" points="46.5,-255.5 46.5,-290.5 207.5,-290.5 207.5,-255.5 46.5,-255.5"/>
<text text-anchor="start" x="59.9827" y="-268.3" font-family="Arial Bold" font-size="18.00" fill="#000000">casbin_rule</text>
<text text-anchor="start" x="152.0005" y="-268.3" font-family="Arial" font-size="14.00" fill="#000000"> </text>
<text text-anchor="start" x="155.8911" y="-268.3" font-family="Arial" font-size="14.00" fill="#666666">[table]</text>
<polygon fill="none" stroke="#000000" points="46.5,-225.5 46.5,-255.5 207.5,-255.5 207.5,-225.5 46.5,-225.5"/>
<text text-anchor="start" x="53.4923" y="-236.9" font-family="Arial" font-size="14.00" fill="#000000">p_type </text>
<text text-anchor="start" x="99.4039" y="-236.9" font-family="Arial" font-size="14.00" fill="#666666">[VARCHAR(32)]</text>
<polygon fill="none" stroke="#000000" points="46.5,-195.5 46.5,-225.5 207.5,-225.5 207.5,-195.5 46.5,-195.5"/>
<text text-anchor="start" x="53.5" y="-206.9" font-family="Arial" font-size="14.00" fill="#000000">v0 </text>
<text text-anchor="start" x="72.1732" y="-206.9" font-family="Arial" font-size="14.00" fill="#666666">[VARCHAR(255)]</text>
<polygon fill="none" stroke="#000000" points="46.5,-165.5 46.5,-195.5 207.5,-195.5 207.5,-165.5 46.5,-165.5"/>
<text text-anchor="start" x="53.5" y="-176.9" font-family="Arial" font-size="14.00" fill="#000000">v1 </text>
<text text-anchor="start" x="72.1732" y="-176.9" font-family="Arial" font-size="14.00" fill="#666666">[VARCHAR(255)]</text>
<polygon fill="none" stroke="#000000" points="46.5,-135.5 46.5,-165.5 207.5,-165.5 207.5,-135.5 46.5,-135.5"/>
<text text-anchor="start" x="53.5" y="-146.9" font-family="Arial" font-size="14.00" fill="#000000">v2 </text>
<text text-anchor="start" x="72.1732" y="-146.9" font-family="Arial" font-size="14.00" fill="#666666">[VARCHAR(255)]</text>
<polygon fill="none" stroke="#000000" points="46.5,-105.5 46.5,-135.5 207.5,-135.5 207.5,-105.5 46.5,-105.5"/>
<text text-anchor="start" x="53.5" y="-116.9" font-family="Arial" font-size="14.00" fill="#000000">v3 </text>
<text text-anchor="start" x="72.1732" y="-116.9" font-family="Arial" font-size="14.00" fill="#666666">[VARCHAR(255)]</text>
<polygon fill="none" stroke="#000000" points="46.5,-75.5 46.5,-105.5 207.5,-105.5 207.5,-75.5 46.5,-75.5"/>
<text text-anchor="start" x="53.5" y="-86.9" font-family="Arial" font-size="14.00" fill="#000000">v4 </text>
<text text-anchor="start" x="72.1732" y="-86.9" font-family="Arial" font-size="14.00" fill="#666666">[VARCHAR(255)]</text>
<polygon fill="none" stroke="#000000" points="46.5,-45.5 46.5,-75.5 207.5,-75.5 207.5,-45.5 46.5,-45.5"/>
<text text-anchor="start" x="53.5" y="-56.9" font-family="Arial" font-size="14.00" fill="#000000">v5 </text>
<text text-anchor="start" x="72.1732" y="-56.9" font-family="Arial" font-size="14.00" fill="#666666">[VARCHAR(255)]</text>
<polygon fill="none" stroke="#000000" stroke-width="3" points="44.5,-44.5 44.5,-292.5 208.5,-292.5 208.5,-44.5 44.5,-44.5"/>
</g>
</g>
</svg>
