<?xml version="1.0" encoding="UTF-8" standalone="no"?>
<!DOCTYPE svg PUBLIC "-//W3C//DTD SVG 1.1//EN"
 "http://www.w3.org/Graphics/SVG/1.1/DTD/svg11.dtd">
<!-- Generated by graphviz version 2.40.1 (20161225.0304)
 -->
<!-- Title: fact_types Pages: 1 -->
<svg width="854pt" height="772pt"
 viewBox="0.00 0.00 853.50 772.00" xmlns="http://www.w3.org/2000/svg" xmlns:xlink="http://www.w3.org/1999/xlink">
<g id="graph0" class="graph" transform="scale(1 1) rotate(0) translate(4 768)">
<title>fact_types</title>
<polygon fill="#ffffff" stroke="transparent" points="-4,4 -4,-768 849.5,-768 849.5,4 -4,4"/>
<!-- fact_types -->
<g id="node1" class="node">
<title>fact_types</title>
<polygon fill="#efefef" stroke="transparent" points="65.5,-255.5 65.5,-290.5 229.5,-290.5 229.5,-255.5 65.5,-255.5"/>
<polygon fill="none" stroke="#000000" points="65.5,-255.5 65.5,-290.5 229.5,-290.5 229.5,-255.5 65.5,-255.5"/>
<text text-anchor="start" x="85.4759" y="-268.3" font-family="Arial Bold" font-size="18.00" fill="#000000">fact_types</text>
<text text-anchor="start" x="167.5073" y="-268.3" font-family="Arial" font-size="14.00" fill="#000000"> </text>
<text text-anchor="start" x="171.3979" y="-268.3" font-family="Arial" font-size="14.00" fill="#666666">[table]</text>
<polygon fill="none" stroke="#000000" points="65.5,-225.5 65.5,-255.5 229.5,-255.5 229.5,-225.5 65.5,-225.5"/>
<text text-anchor="start" x="72.5" y="-236.9" font-family="Arial" font-size="14.00" fill="#000000">id </text>
<text text-anchor="start" x="87.2798" y="-236.9" font-family="Arial" font-size="14.00" fill="#666666">[varchar(255)]</text>
<polygon fill="none" stroke="#000000" points="65.5,-195.5 65.5,-225.5 229.5,-225.5 229.5,-195.5 65.5,-195.5"/>
<text text-anchor="start" x="72.5" y="-206.9" font-family="Arial" font-size="14.00" fill="#000000">created_at </text>
<text text-anchor="start" x="142.528" y="-206.9" font-family="Arial" font-size="14.00" fill="#666666">[datetime]</text>
<polygon fill="none" stroke="#000000" points="65.5,-165.5 65.5,-195.5 229.5,-195.5 229.5,-165.5 65.5,-165.5"/>
<text text-anchor="start" x="72.5" y="-176.9" font-family="Arial" font-size="14.00" fill="#000000">updated_at </text>
<text text-anchor="start" x="146.4326" y="-176.9" font-family="Arial" font-size="14.00" fill="#666666">[datetime]</text>
<polygon fill="none" stroke="#000000" points="65.5,-135.5 65.5,-165.5 229.5,-165.5 229.5,-135.5 65.5,-135.5"/>
<text text-anchor="start" x="72.5" y="-146.9" font-family="Arial" font-size="14.00" fill="#000000">deleted_at </text>
<text text-anchor="start" x="141.7566" y="-146.9" font-family="Arial" font-size="14.00" fill="#666666">[datetime]</text>
<polygon fill="none" stroke="#000000" points="65.5,-105.5 65.5,-135.5 229.5,-135.5 229.5,-105.5 65.5,-105.5"/>
<text text-anchor="start" x="72.5" y="-116.9" font-family="Arial" font-size="14.00" fill="#000000">slug </text>
<text text-anchor="start" x="102.0624" y="-116.9" font-family="Arial" font-size="14.00" fill="#666666">[varchar(255)]</text>
<polygon fill="none" stroke="#000000" points="65.5,-75.5 65.5,-105.5 229.5,-105.5 229.5,-75.5 65.5,-75.5"/>
<text text-anchor="start" x="72.5" y="-86.9" font-family="Arial" font-size="14.00" fill="#000000">built_in </text>
<text text-anchor="start" x="120.7314" y="-86.9" font-family="Arial" font-size="14.00" fill="#666666">[bool]</text>
<polygon fill="none" stroke="#000000" points="65.5,-45.5 65.5,-75.5 229.5,-75.5 229.5,-45.5 65.5,-45.5"/>
<text text-anchor="start" x="72.4334" y="-56.9" font-family="Arial" font-size="14.00" fill="#000000">validation </text>
<text text-anchor="start" x="135.4474" y="-56.9" font-family="Arial" font-size="14.00" fill="#666666">[varchar(255)]</text>
<polygon fill="none" stroke="#000000" stroke-width="3" points="64,-44.5 64,-292.5 231,-292.5 231,-44.5 64,-44.5"/>
</g>
<!-- facts -->
<g id="node2" class="node">
<title>facts</title>
<polygon fill="#efefef" stroke="transparent" points="43.5,-685.5 43.5,-720.5 250.5,-720.5 250.5,-685.5 43.5,-685.5"/>
<polygon fill="none" stroke="#000000" points="43.5,-685.5 43.5,-720.5 250.5,-720.5 250.5,-685.5 43.5,-685.5"/>
<text text-anchor="start" x="106.9863" y="-698.3" font-family="Arial Bold" font-size="18.00" fill="#000000">facts</text>
<text text-anchor="start" x="144.9969" y="-698.3" font-family="Arial" font-size="14.00" fill="#000000"> </text>
<text text-anchor="start" x="148.8875" y="-698.3" font-family="Arial" font-size="14.00" fill="#666666">[table]</text>
<polygon fill="none" stroke="#000000" points="43.5,-655.5 43.5,-685.5 250.5,-685.5 250.5,-655.5 43.5,-655.5"/>
<text text-anchor="start" x="50.5" y="-666.9" font-family="Arial" font-size="14.00" fill="#000000">id </text>
<text text-anchor="start" x="65.2798" y="-666.9" font-family="Arial" font-size="14.00" fill="#666666">[varchar(255)]</text>
<polygon fill="none" stroke="#000000" points="43.5,-625.5 43.5,-655.5 250.5,-655.5 250.5,-625.5 43.5,-625.5"/>
<text text-anchor="start" x="50.5" y="-636.9" font-family="Arial" font-size="14.00" fill="#000000">created_at </text>
<text text-anchor="start" x="120.528" y="-636.9" font-family="Arial" font-size="14.00" fill="#666666">[datetime]</text>
<polygon fill="none" stroke="#000000" points="43.5,-595.5 43.5,-625.5 250.5,-625.5 250.5,-595.5 43.5,-595.5"/>
<text text-anchor="start" x="50.5" y="-606.9" font-family="Arial" font-size="14.00" fill="#000000">updated_at </text>
<text text-anchor="start" x="124.4326" y="-606.9" font-family="Arial" font-size="14.00" fill="#666666">[datetime]</text>
<polygon fill="none" stroke="#000000" points="43.5,-565.5 43.5,-595.5 250.5,-595.5 250.5,-565.5 43.5,-565.5"/>
<text text-anchor="start" x="50.5" y="-576.9" font-family="Arial" font-size="14.00" fill="#000000">deleted_at </text>
<text text-anchor="start" x="119.7566" y="-576.9" font-family="Arial" font-size="14.00" fill="#666666">[datetime]</text>
<polygon fill="none" stroke="#000000" points="43.5,-535.5 43.5,-565.5 250.5,-565.5 250.5,-535.5 43.5,-535.5"/>
<text text-anchor="start" x="50.5" y="-546.9" font-family="Arial" font-size="14.00" fill="#000000">hashed_value </text>
<text text-anchor="start" x="141.5406" y="-546.9" font-family="Arial" font-size="14.00" fill="#666666">[varchar(255)]</text>
<polygon fill="none" stroke="#000000" points="43.5,-505.5 43.5,-535.5 250.5,-535.5 250.5,-505.5 43.5,-505.5"/>
<text text-anchor="start" x="50.1445" y="-516.9" font-family="Arial" font-size="14.00" fill="#000000">encrypted_value </text>
<text text-anchor="start" x="156.7363" y="-516.9" font-family="Arial" font-size="14.00" fill="#666666">[varchar(255)]</text>
<polygon fill="none" stroke="#000000" points="43.5,-475.5 43.5,-505.5 250.5,-505.5 250.5,-475.5 43.5,-475.5"/>
<text text-anchor="start" x="50.5" y="-486.9" font-family="Arial" font-size="14.00" fill="#000000">domain </text>
<text text-anchor="start" x="100.2882" y="-486.9" font-family="Arial" font-size="14.00" fill="#666666">[varchar(255)]</text>
<polygon fill="none" stroke="#000000" points="43.5,-445.5 43.5,-475.5 250.5,-475.5 250.5,-445.5 43.5,-445.5"/>
<text text-anchor="start" x="50.5" y="-456.9" font-family="Arial" font-size="14.00" fill="#000000">fact_type_facts </text>
<text text-anchor="start" x="148.5392" y="-456.9" font-family="Arial" font-size="14.00" fill="#666666">[varchar(255)]</text>
<polygon fill="none" stroke="#000000" points="43.5,-415.5 43.5,-445.5 250.5,-445.5 250.5,-415.5 43.5,-415.5"/>
<text text-anchor="start" x="50.5" y="-426.9" font-family="Arial" font-size="14.00" fill="#000000">scope_facts </text>
<text text-anchor="start" x="129.0848" y="-426.9" font-family="Arial" font-size="14.00" fill="#666666">[varchar(255)]</text>
</g>
<!-- facts&#45;&gt;fact_types -->
<g id="edge1" class="edge">
<title>facts:fact_type_facts&#45;&gt;fact_types:id</title>
<path fill="none" stroke="#000000" d="M260.4152,-458.9343C286.5232,-449.5336 272.8179,-400.0795 250.5,-373 197.2259,-308.3597 118.7741,-401.6403 65.5,-337 38.2227,-303.9031 22.6111,-240.5 65.5,-240.5"/>
<polygon fill="#000000" stroke="#000000" points="260.3776,-458.9402 249.7981,-456.0551 255.4388,-459.7201 250.5,-460.5 250.5,-460.5 250.5,-460.5 255.4388,-459.7201 251.2019,-464.9449 260.3776,-458.9402 260.3776,-458.9402"/>
<text text-anchor="start" x="257.9295" y="-470.5" font-family="Arial" font-size="10.00" fill="#000000">FOREIGN KEY (fact_type_facts) REFERENCES fact_types (id) ON UPDATE NO ACTION ON DELETE SET NULL MATCH NONE</text>
</g>
</g>
</svg>
