<?xml version="1.0" encoding="UTF-8" standalone="no"?>
<!DOCTYPE svg PUBLIC "-//W3C//DTD SVG 1.1//EN"
 "http://www.w3.org/Graphics/SVG/1.1/DTD/svg11.dtd">
<!-- Generated by graphviz version 2.40.1 (20161225.0304)
 -->
<!-- Title: facts Pages: 1 -->
<svg width="1377pt" height="772pt"
 viewBox="0.00 0.00 1377.00 772.00" xmlns="http://www.w3.org/2000/svg" xmlns:xlink="http://www.w3.org/1999/xlink">
<g id="graph0" class="graph" transform="scale(1 1) rotate(0) translate(4 768)">
<title>facts</title>
<polygon fill="#ffffff" stroke="transparent" points="-4,4 -4,-768 1373,-768 1373,4 -4,4"/>
<!-- facts -->
<g id="node1" class="node">
<title>facts</title>
<polygon fill="#efefef" stroke="transparent" points="595,-682.5 595,-717.5 802,-717.5 802,-682.5 595,-682.5"/>
<polygon fill="none" stroke="#000000" points="595,-682.5 595,-717.5 802,-717.5 802,-682.5 595,-682.5"/>
<text text-anchor="start" x="658.4863" y="-695.3" font-family="Arial Bold" font-size="18.00" fill="#000000">facts</text>
<text text-anchor="start" x="696.4969" y="-695.3" font-family="Arial" font-size="14.00" fill="#000000"> </text>
<text text-anchor="start" x="700.3875" y="-695.3" font-family="Arial" font-size="14.00" fill="#666666">[table]</text>
<polygon fill="none" stroke="#000000" points="595,-652.5 595,-682.5 802,-682.5 802,-652.5 595,-652.5"/>
<text text-anchor="start" x="602" y="-663.9" font-family="Arial" font-size="14.00" fill="#000000">id </text>
<text text-anchor="start" x="616.7798" y="-663.9" font-family="Arial" font-size="14.00" fill="#666666">[varchar(255)]</text>
<polygon fill="none" stroke="#000000" points="595,-622.5 595,-652.5 802,-652.5 802,-622.5 595,-622.5"/>
<text text-anchor="start" x="602" y="-633.9" font-family="Arial" font-size="14.00" fill="#000000">created_at </text>
<text text-anchor="start" x="672.028" y="-633.9" font-family="Arial" font-size="14.00" fill="#666666">[datetime]</text>
<polygon fill="none" stroke="#000000" points="595,-592.5 595,-622.5 802,-622.5 802,-592.5 595,-592.5"/>
<text text-anchor="start" x="602" y="-603.9" font-family="Arial" font-size="14.00" fill="#000000">updated_at </text>
<text text-anchor="start" x="675.9326" y="-603.9" font-family="Arial" font-size="14.00" fill="#666666">[datetime]</text>
<polygon fill="none" stroke="#000000" points="595,-562.5 595,-592.5 802,-592.5 802,-562.5 595,-562.5"/>
<text text-anchor="start" x="602" y="-573.9" font-family="Arial" font-size="14.00" fill="#000000">deleted_at </text>
<text text-anchor="start" x="671.2566" y="-573.9" font-family="Arial" font-size="14.00" fill="#666666">[datetime]</text>
<polygon fill="none" stroke="#000000" points="595,-532.5 595,-562.5 802,-562.5 802,-532.5 595,-532.5"/>
<text text-anchor="start" x="602" y="-543.9" font-family="Arial" font-size="14.00" fill="#000000">hashed_value </text>
<text text-anchor="start" x="693.0406" y="-543.9" font-family="Arial" font-size="14.00" fill="#666666">[varchar(255)]</text>
<polygon fill="none" stroke="#000000" points="595,-502.5 595,-532.5 802,-532.5 802,-502.5 595,-502.5"/>
<text text-anchor="start" x="601.6445" y="-513.9" font-family="Arial" font-size="14.00" fill="#000000">encrypted_value </text>
<text text-anchor="start" x="708.2363" y="-513.9" font-family="Arial" font-size="14.00" fill="#666666">[varchar(255)]</text>
<polygon fill="none" stroke="#000000" points="595,-472.5 595,-502.5 802,-502.5 802,-472.5 595,-472.5"/>
<text text-anchor="start" x="602" y="-483.9" font-family="Arial" font-size="14.00" fill="#000000">domain </text>
<text text-anchor="start" x="651.7882" y="-483.9" font-family="Arial" font-size="14.00" fill="#666666">[varchar(255)]</text>
<polygon fill="none" stroke="#000000" points="595,-442.5 595,-472.5 802,-472.5 802,-442.5 595,-442.5"/>
<text text-anchor="start" x="602" y="-453.9" font-family="Arial" font-size="14.00" fill="#000000">fact_type_facts </text>
<text text-anchor="start" x="700.0392" y="-453.9" font-family="Arial" font-size="14.00" fill="#666666">[varchar(255)]</text>
<polygon fill="none" stroke="#000000" points="595,-412.5 595,-442.5 802,-442.5 802,-412.5 595,-412.5"/>
<text text-anchor="start" x="602" y="-423.9" font-family="Arial" font-size="14.00" fill="#000000">scope_facts </text>
<text text-anchor="start" x="680.5848" y="-423.9" font-family="Arial" font-size="14.00" fill="#666666">[varchar(255)]</text>
<polygon fill="none" stroke="#000000" stroke-width="3" points="593,-411.5 593,-719.5 803,-719.5 803,-411.5 593,-411.5"/>
</g>
<!-- fact_types -->
<g id="node2" class="node">
<title>fact_types</title>
<polygon fill="#efefef" stroke="transparent" points="482,-252.5 482,-287.5 646,-287.5 646,-252.5 482,-252.5"/>
<polygon fill="none" stroke="#000000" points="482,-252.5 482,-287.5 646,-287.5 646,-252.5 482,-252.5"/>
<text text-anchor="start" x="501.9759" y="-265.3" font-family="Arial Bold" font-size="18.00" fill="#000000">fact_types</text>
<text text-anchor="start" x="584.0073" y="-265.3" font-family="Arial" font-size="14.00" fill="#000000"> </text>
<text text-anchor="start" x="587.8979" y="-265.3" font-family="Arial" font-size="14.00" fill="#666666">[table]</text>
<polygon fill="none" stroke="#000000" points="482,-222.5 482,-252.5 646,-252.5 646,-222.5 482,-222.5"/>
<text text-anchor="start" x="489" y="-233.9" font-family="Arial" font-size="14.00" fill="#000000">id </text>
<text text-anchor="start" x="503.7798" y="-233.9" font-family="Arial" font-size="14.00" fill="#666666">[varchar(255)]</text>
<polygon fill="none" stroke="#000000" points="482,-192.5 482,-222.5 646,-222.5 646,-192.5 482,-192.5"/>
<text text-anchor="start" x="489" y="-203.9" font-family="Arial" font-size="14.00" fill="#000000">created_at </text>
<text text-anchor="start" x="559.028" y="-203.9" font-family="Arial" font-size="14.00" fill="#666666">[datetime]</text>
<polygon fill="none" stroke="#000000" points="482,-162.5 482,-192.5 646,-192.5 646,-162.5 482,-162.5"/>
<text text-anchor="start" x="489" y="-173.9" font-family="Arial" font-size="14.00" fill="#000000">updated_at </text>
<text text-anchor="start" x="562.9326" y="-173.9" font-family="Arial" font-size="14.00" fill="#666666">[datetime]</text>
<polygon fill="none" stroke="#000000" points="482,-132.5 482,-162.5 646,-162.5 646,-132.5 482,-132.5"/>
<text text-anchor="start" x="489" y="-143.9" font-family="Arial" font-size="14.00" fill="#000000">deleted_at </text>
<text text-anchor="start" x="558.2566" y="-143.9" font-family="Arial" font-size="14.00" fill="#666666">[datetime]</text>
<polygon fill="none" stroke="#000000" points="482,-102.5 482,-132.5 646,-132.5 646,-102.5 482,-102.5"/>
<text text-anchor="start" x="489" y="-113.9" font-family="Arial" font-size="14.00" fill="#000000">slug </text>
<text text-anchor="start" x="518.5624" y="-113.9" font-family="Arial" font-size="14.00" fill="#666666">[varchar(255)]</text>
<polygon fill="none" stroke="#000000" points="482,-72.5 482,-102.5 646,-102.5 646,-72.5 482,-72.5"/>
<text text-anchor="start" x="489" y="-83.9" font-family="Arial" font-size="14.00" fill="#000000">built_in </text>
<text text-anchor="start" x="537.2314" y="-83.9" font-family="Arial" font-size="14.00" fill="#666666">[bool]</text>
<polygon fill="none" stroke="#000000" points="482,-42.5 482,-72.5 646,-72.5 646,-42.5 482,-42.5"/>
<text text-anchor="start" x="488.9334" y="-53.9" font-family="Arial" font-size="14.00" fill="#000000">validation </text>
<text text-anchor="start" x="551.9474" y="-53.9" font-family="Arial" font-size="14.00" fill="#666666">[varchar(255)]</text>
</g>
<!-- facts&#45;&gt;fact_types -->
<g id="edge1" class="edge">
<title>facts:fact_type_facts&#45;&gt;fact_types:id</title>
<path fill="none" stroke="#000000" d="M584.9276,-456.0013C558.9888,-446.9813 578.3023,-399.2252 595,-367 607.7644,-342.3657 633.2356,-355.6343 646,-331 665.1182,-294.1034 687.5556,-237.5 646,-237.5"/>
<polygon fill="#000000" stroke="#000000" points="585.1089,-456.0282 594.3377,-461.951 590.0544,-456.7641 595,-457.5 595,-457.5 595,-457.5 590.0544,-456.7641 595.6623,-453.049 585.1089,-456.0282 585.1089,-456.0282"/>
<text text-anchor="start" x="7.4295" y="-467.5" font-family="Arial" font-size="10.00" fill="#000000">FOREIGN KEY (fact_type_facts) REFERENCES fact_types (id) ON UPDATE NO ACTION ON DELETE SET NULL MATCH NONE</text>
</g>
<!-- scopes -->
<g id="node3" class="node">
<title>scopes</title>
<polygon fill="#efefef" stroke="transparent" points="750,-252.5 750,-287.5 918,-287.5 918,-252.5 750,-252.5"/>
<polygon fill="none" stroke="#000000" points="750,-252.5 750,-287.5 918,-287.5 918,-252.5 750,-252.5"/>
<text text-anchor="start" x="784.4823" y="-265.3" font-family="Arial Bold" font-size="18.00" fill="#000000">scopes</text>
<text text-anchor="start" x="841.5009" y="-265.3" font-family="Arial" font-size="14.00" fill="#000000"> </text>
<text text-anchor="start" x="845.3915" y="-265.3" font-family="Arial" font-size="14.00" fill="#666666">[table]</text>
<polygon fill="none" stroke="#000000" points="750,-222.5 750,-252.5 918,-252.5 918,-222.5 750,-222.5"/>
<text text-anchor="start" x="757" y="-233.9" font-family="Arial" font-size="14.00" fill="#000000">id </text>
<text text-anchor="start" x="771.7798" y="-233.9" font-family="Arial" font-size="14.00" fill="#666666">[varchar(255)]</text>
<polygon fill="none" stroke="#000000" points="750,-192.5 750,-222.5 918,-222.5 918,-192.5 750,-192.5"/>
<text text-anchor="start" x="757" y="-203.9" font-family="Arial" font-size="14.00" fill="#000000">created_at </text>
<text text-anchor="start" x="827.028" y="-203.9" font-family="Arial" font-size="14.00" fill="#666666">[datetime]</text>
<polygon fill="none" stroke="#000000" points="750,-162.5 750,-192.5 918,-192.5 918,-162.5 750,-162.5"/>
<text text-anchor="start" x="757" y="-173.9" font-family="Arial" font-size="14.00" fill="#000000">updated_at </text>
<text text-anchor="start" x="830.9326" y="-173.9" font-family="Arial" font-size="14.00" fill="#666666">[datetime]</text>
<polygon fill="none" stroke="#000000" points="750,-132.5 750,-162.5 918,-162.5 918,-132.5 750,-132.5"/>
<text text-anchor="start" x="757" y="-143.9" font-family="Arial" font-size="14.00" fill="#000000">deleted_at </text>
<text text-anchor="start" x="826.2566" y="-143.9" font-family="Arial" font-size="14.00" fill="#666666">[datetime]</text>
<polygon fill="none" stroke="#000000" points="750,-102.5 750,-132.5 918,-132.5 918,-102.5 750,-102.5"/>
<text text-anchor="start" x="756.601" y="-113.9" font-family="Arial" font-size="14.00" fill="#000000">custom_id </text>
<text text-anchor="start" x="824.2798" y="-113.9" font-family="Arial" font-size="14.00" fill="#666666">[varchar(255)]</text>
<polygon fill="none" stroke="#000000" points="750,-72.5 750,-102.5 918,-102.5 918,-72.5 750,-72.5"/>
<text text-anchor="start" x="757" y="-83.9" font-family="Arial" font-size="14.00" fill="#000000">nonce </text>
<text text-anchor="start" x="799.021" y="-83.9" font-family="Arial" font-size="14.00" fill="#666666">[varchar(255)]</text>
<polygon fill="none" stroke="#000000" points="750,-42.5 750,-72.5 918,-72.5 918,-42.5 750,-42.5"/>
<text text-anchor="start" x="757" y="-53.9" font-family="Arial" font-size="14.00" fill="#000000">domain </text>
<text text-anchor="start" x="806.7882" y="-53.9" font-family="Arial" font-size="14.00" fill="#666666">[varchar(255)]</text>
</g>
<!-- facts&#45;&gt;scopes -->
<g id="edge2" class="edge">
<title>facts:scope_facts&#45;&gt;scopes:id</title>
<path fill="none" stroke="#000000" d="M811.7443,-425.0023C824.433,-416.3508 812.5294,-387.0961 802,-367 788.9544,-342.1015 763.0456,-355.8985 750,-331 730.7138,-294.1909 708.4444,-237.5 750,-237.5"/>
<polygon fill="#000000" stroke="#000000" points="811.6868,-425.017 800.8826,-423.1409 806.8434,-426.2585 802,-427.5 802,-427.5 802,-427.5 806.8434,-426.2585 803.1174,-431.8591 811.6868,-425.017 811.6868,-425.017"/>
<text text-anchor="start" x="809.3255" y="-437.5" font-family="Arial" font-size="10.00" fill="#000000">FOREIGN KEY (scope_facts) REFERENCES scopes (id) ON UPDATE NO ACTION ON DELETE SET NULL MATCH NONE</text>
</g>
</g>
</svg>
