<?xml version="1.0" encoding="UTF-8" standalone="no"?>
<!DOCTYPE svg PUBLIC "-//W3C//DTD SVG 1.1//EN"
 "http://www.w3.org/Graphics/SVG/1.1/DTD/svg11.dtd">
<!-- Generated by graphviz version 2.40.1 (20161225.0304)
 -->
<!-- Title: _opv.sqlite Pages: 1 -->
<svg width="1252pt" height="796pt"
 viewBox="0.00 0.00 1251.50 796.00" xmlns="http://www.w3.org/2000/svg" xmlns:xlink="http://www.w3.org/1999/xlink">
<g id="graph0" class="graph" transform="scale(1 1) rotate(0) translate(4 792)">
<title>_opv.sqlite</title>
<polygon fill="#ffffff" stroke="transparent" points="-4,4 -4,-792 1247.5,-792 1247.5,4 -4,4"/>
<!-- api_audits -->
<g id="node1" class="node">
<title>api_audits</title>
<polygon fill="#efefef" stroke="transparent" points="43,-709.5 43,-744.5 275,-744.5 275,-709.5 43,-709.5"/>
<polygon fill="none" stroke="#000000" points="43,-709.5 43,-744.5 275,-744.5 275,-709.5 43,-709.5"/>
<text text-anchor="start" x="96.9777" y="-722.3" font-family="Arial Bold" font-size="18.00" fill="#000000">api_audits</text>
<text text-anchor="start" x="179.0055" y="-722.3" font-family="Arial" font-size="14.00" fill="#000000"> </text>
<text text-anchor="start" x="182.8961" y="-722.3" font-family="Arial" font-size="14.00" fill="#666666">[table]</text>
<polygon fill="none" stroke="#000000" points="43,-679.5 43,-709.5 275,-709.5 275,-679.5 43,-679.5"/>
<text text-anchor="start" x="50" y="-690.9" font-family="Arial" font-size="14.00" fill="#000000">id </text>
<text text-anchor="start" x="64.7798" y="-690.9" font-family="Arial" font-size="14.00" fill="#666666">[varchar(255)]</text>
<polygon fill="none" stroke="#000000" points="43,-649.5 43,-679.5 275,-679.5 275,-649.5 43,-649.5"/>
<text text-anchor="start" x="50" y="-660.9" font-family="Arial" font-size="14.00" fill="#000000">created_at </text>
<text text-anchor="start" x="120.028" y="-660.9" font-family="Arial" font-size="14.00" fill="#666666">[datetime]</text>
<polygon fill="none" stroke="#000000" points="43,-619.5 43,-649.5 275,-649.5 275,-619.5 43,-619.5"/>
<text text-anchor="start" x="50" y="-630.9" font-family="Arial" font-size="14.00" fill="#000000">updated_at </text>
<text text-anchor="start" x="123.9326" y="-630.9" font-family="Arial" font-size="14.00" fill="#666666">[datetime]</text>
<polygon fill="none" stroke="#000000" points="43,-589.5 43,-619.5 275,-619.5 275,-589.5 43,-589.5"/>
<text text-anchor="start" x="50" y="-600.9" font-family="Arial" font-size="14.00" fill="#000000">deleted_at </text>
<text text-anchor="start" x="119.2566" y="-600.9" font-family="Arial" font-size="14.00" fill="#666666">[datetime]</text>
<polygon fill="none" stroke="#000000" points="43,-559.5 43,-589.5 275,-589.5 275,-559.5 43,-559.5"/>
<text text-anchor="start" x="50" y="-570.9" font-family="Arial" font-size="14.00" fill="#000000">plane </text>
<text text-anchor="start" x="88.1276" y="-570.9" font-family="Arial" font-size="14.00" fill="#666666">[varchar(255)]</text>
<polygon fill="none" stroke="#000000" points="43,-529.5 43,-559.5 275,-559.5 275,-529.5 43,-529.5"/>
<text text-anchor="start" x="49.6873" y="-540.9" font-family="Arial" font-size="14.00" fill="#000000">hashed_grant_token </text>
<text text-anchor="start" x="181.1935" y="-540.9" font-family="Arial" font-size="14.00" fill="#666666">[varchar(255)]</text>
<polygon fill="none" stroke="#000000" points="43,-499.5 43,-529.5 275,-529.5 275,-499.5 43,-499.5"/>
<text text-anchor="start" x="50" y="-510.9" font-family="Arial" font-size="14.00" fill="#000000">domain </text>
<text text-anchor="start" x="99.7882" y="-510.9" font-family="Arial" font-size="14.00" fill="#666666">[varchar(255)]</text>
<polygon fill="none" stroke="#000000" points="43,-469.5 43,-499.5 275,-499.5 275,-469.5 43,-469.5"/>
<text text-anchor="start" x="50" y="-480.9" font-family="Arial" font-size="14.00" fill="#000000">http_path </text>
<text text-anchor="start" x="112.258" y="-480.9" font-family="Arial" font-size="14.00" fill="#666666">[varchar(255)]</text>
<polygon fill="none" stroke="#000000" points="43,-439.5 43,-469.5 275,-469.5 275,-439.5 43,-439.5"/>
<text text-anchor="start" x="50" y="-450.9" font-family="Arial" font-size="14.00" fill="#000000">http_method </text>
<text text-anchor="start" x="131.7012" y="-450.9" font-family="Arial" font-size="14.00" fill="#666666">[varchar(255)]</text>
<polygon fill="none" stroke="#000000" points="43,-409.5 43,-439.5 275,-439.5 275,-409.5 43,-409.5"/>
<text text-anchor="start" x="50" y="-420.9" font-family="Arial" font-size="14.00" fill="#000000">sent_http_status </text>
<text text-anchor="start" x="156.6044" y="-420.9" font-family="Arial" font-size="14.00" fill="#666666">[integer]</text>
</g>
<!-- facts -->
<g id="node2" class="node">
<title>facts</title>
<polygon fill="#efefef" stroke="transparent" points="380,-694.5 380,-729.5 587,-729.5 587,-694.5 380,-694.5"/>
<polygon fill="none" stroke="#000000" points="380,-694.5 380,-729.5 587,-729.5 587,-694.5 380,-694.5"/>
<text text-anchor="start" x="443.4863" y="-707.3" font-family="Arial Bold" font-size="18.00" fill="#000000">facts</text>
<text text-anchor="start" x="481.4969" y="-707.3" font-family="Arial" font-size="14.00" fill="#000000"> </text>
<text text-anchor="start" x="485.3875" y="-707.3" font-family="Arial" font-size="14.00" fill="#666666">[table]</text>
<polygon fill="none" stroke="#000000" points="380,-664.5 380,-694.5 587,-694.5 587,-664.5 380,-664.5"/>
<text text-anchor="start" x="387" y="-675.9" font-family="Arial" font-size="14.00" fill="#000000">id </text>
<text text-anchor="start" x="401.7798" y="-675.9" font-family="Arial" font-size="14.00" fill="#666666">[varchar(255)]</text>
<polygon fill="none" stroke="#000000" points="380,-634.5 380,-664.5 587,-664.5 587,-634.5 380,-634.5"/>
<text text-anchor="start" x="387" y="-645.9" font-family="Arial" font-size="14.00" fill="#000000">created_at </text>
<text text-anchor="start" x="457.028" y="-645.9" font-family="Arial" font-size="14.00" fill="#666666">[datetime]</text>
<polygon fill="none" stroke="#000000" points="380,-604.5 380,-634.5 587,-634.5 587,-604.5 380,-604.5"/>
<text text-anchor="start" x="387" y="-615.9" font-family="Arial" font-size="14.00" fill="#000000">updated_at </text>
<text text-anchor="start" x="460.9326" y="-615.9" font-family="Arial" font-size="14.00" fill="#666666">[datetime]</text>
<polygon fill="none" stroke="#000000" points="380,-574.5 380,-604.5 587,-604.5 587,-574.5 380,-574.5"/>
<text text-anchor="start" x="387" y="-585.9" font-family="Arial" font-size="14.00" fill="#000000">deleted_at </text>
<text text-anchor="start" x="456.2566" y="-585.9" font-family="Arial" font-size="14.00" fill="#666666">[datetime]</text>
<polygon fill="none" stroke="#000000" points="380,-544.5 380,-574.5 587,-574.5 587,-544.5 380,-544.5"/>
<text text-anchor="start" x="387" y="-555.9" font-family="Arial" font-size="14.00" fill="#000000">hashed_value </text>
<text text-anchor="start" x="478.0406" y="-555.9" font-family="Arial" font-size="14.00" fill="#666666">[varchar(255)]</text>
<polygon fill="none" stroke="#000000" points="380,-514.5 380,-544.5 587,-544.5 587,-514.5 380,-514.5"/>
<text text-anchor="start" x="386.6445" y="-525.9" font-family="Arial" font-size="14.00" fill="#000000">encrypted_value </text>
<text text-anchor="start" x="493.2363" y="-525.9" font-family="Arial" font-size="14.00" fill="#666666">[varchar(255)]</text>
<polygon fill="none" stroke="#000000" points="380,-484.5 380,-514.5 587,-514.5 587,-484.5 380,-484.5"/>
<text text-anchor="start" x="387" y="-495.9" font-family="Arial" font-size="14.00" fill="#000000">domain </text>
<text text-anchor="start" x="436.7882" y="-495.9" font-family="Arial" font-size="14.00" fill="#666666">[varchar(255)]</text>
<polygon fill="none" stroke="#000000" points="380,-454.5 380,-484.5 587,-484.5 587,-454.5 380,-454.5"/>
<text text-anchor="start" x="387" y="-465.9" font-family="Arial" font-size="14.00" fill="#000000">fact_type_facts </text>
<text text-anchor="start" x="485.0392" y="-465.9" font-family="Arial" font-size="14.00" fill="#666666">[varchar(255)]</text>
<polygon fill="none" stroke="#000000" points="380,-424.5 380,-454.5 587,-454.5 587,-424.5 380,-424.5"/>
<text text-anchor="start" x="387" y="-435.9" font-family="Arial" font-size="14.00" fill="#000000">scope_facts </text>
<text text-anchor="start" x="465.5848" y="-435.9" font-family="Arial" font-size="14.00" fill="#666666">[varchar(255)]</text>
</g>
<!-- fact_types -->
<g id="node3" class="node">
<title>fact_types</title>
<polygon fill="#efefef" stroke="transparent" points="267,-252.5 267,-287.5 431,-287.5 431,-252.5 267,-252.5"/>
<polygon fill="none" stroke="#000000" points="267,-252.5 267,-287.5 431,-287.5 431,-252.5 267,-252.5"/>
<text text-anchor="start" x="286.9759" y="-265.3" font-family="Arial Bold" font-size="18.00" fill="#000000">fact_types</text>
<text text-anchor="start" x="369.0073" y="-265.3" font-family="Arial" font-size="14.00" fill="#000000"> </text>
<text text-anchor="start" x="372.8979" y="-265.3" font-family="Arial" font-size="14.00" fill="#666666">[table]</text>
<polygon fill="none" stroke="#000000" points="267,-222.5 267,-252.5 431,-252.5 431,-222.5 267,-222.5"/>
<text text-anchor="start" x="274" y="-233.9" font-family="Arial" font-size="14.00" fill="#000000">id </text>
<text text-anchor="start" x="288.7798" y="-233.9" font-family="Arial" font-size="14.00" fill="#666666">[varchar(255)]</text>
<polygon fill="none" stroke="#000000" points="267,-192.5 267,-222.5 431,-222.5 431,-192.5 267,-192.5"/>
<text text-anchor="start" x="274" y="-203.9" font-family="Arial" font-size="14.00" fill="#000000">created_at </text>
<text text-anchor="start" x="344.028" y="-203.9" font-family="Arial" font-size="14.00" fill="#666666">[datetime]</text>
<polygon fill="none" stroke="#000000" points="267,-162.5 267,-192.5 431,-192.5 431,-162.5 267,-162.5"/>
<text text-anchor="start" x="274" y="-173.9" font-family="Arial" font-size="14.00" fill="#000000">updated_at </text>
<text text-anchor="start" x="347.9326" y="-173.9" font-family="Arial" font-size="14.00" fill="#666666">[datetime]</text>
<polygon fill="none" stroke="#000000" points="267,-132.5 267,-162.5 431,-162.5 431,-132.5 267,-132.5"/>
<text text-anchor="start" x="274" y="-143.9" font-family="Arial" font-size="14.00" fill="#000000">deleted_at </text>
<text text-anchor="start" x="343.2566" y="-143.9" font-family="Arial" font-size="14.00" fill="#666666">[datetime]</text>
<polygon fill="none" stroke="#000000" points="267,-102.5 267,-132.5 431,-132.5 431,-102.5 267,-102.5"/>
<text text-anchor="start" x="274" y="-113.9" font-family="Arial" font-size="14.00" fill="#000000">slug </text>
<text text-anchor="start" x="303.5624" y="-113.9" font-family="Arial" font-size="14.00" fill="#666666">[varchar(255)]</text>
<polygon fill="none" stroke="#000000" points="267,-72.5 267,-102.5 431,-102.5 431,-72.5 267,-72.5"/>
<text text-anchor="start" x="274" y="-83.9" font-family="Arial" font-size="14.00" fill="#000000">built_in </text>
<text text-anchor="start" x="322.2314" y="-83.9" font-family="Arial" font-size="14.00" fill="#666666">[bool]</text>
<polygon fill="none" stroke="#000000" points="267,-42.5 267,-72.5 431,-72.5 431,-42.5 267,-42.5"/>
<text text-anchor="start" x="273.9334" y="-53.9" font-family="Arial" font-size="14.00" fill="#000000">validation </text>
<text text-anchor="start" x="336.9474" y="-53.9" font-family="Arial" font-size="14.00" fill="#666666">[varchar(255)]</text>
</g>
<!-- facts&#45;&gt;fact_types -->
<g id="edge2" class="edge">
<title>facts:fact_type_facts&#45;&gt;fact_types:id</title>
<path fill="none" stroke="#000000" d="M370.0219,-467.9745C345.8934,-459.1859 366.6293,-414.2796 380,-382 392.2671,-352.3846 418.7329,-360.6154 431,-331 446.9026,-292.6077 472.5556,-237.5 431,-237.5"/>
<polygon fill="#000000" stroke="#000000" points="370.1149,-467.9887 379.3199,-473.9483 375.0574,-468.7443 380,-469.5 380,-469.5 380,-469.5 375.0574,-468.7443 380.6801,-465.0517 370.1149,-467.9887 370.1149,-467.9887"/>
<text text-anchor="start" x="387.4295" y="-479.5" font-family="Arial" font-size="10.00" fill="#000000">FOREIGN KEY (fact_type_facts) REFERENCES fact_types (id) ON UPDATE NO ACTION ON DELETE SET NULL MATCH NONE</text>
</g>
<!-- scopes -->
<g id="node5" class="node">
<title>scopes</title>
<polygon fill="#efefef" stroke="transparent" points="535,-252.5 535,-287.5 703,-287.5 703,-252.5 535,-252.5"/>
<polygon fill="none" stroke="#000000" points="535,-252.5 535,-287.5 703,-287.5 703,-252.5 535,-252.5"/>
<text text-anchor="start" x="569.4823" y="-265.3" font-family="Arial Bold" font-size="18.00" fill="#000000">scopes</text>
<text text-anchor="start" x="626.5009" y="-265.3" font-family="Arial" font-size="14.00" fill="#000000"> </text>
<text text-anchor="start" x="630.3915" y="-265.3" font-family="Arial" font-size="14.00" fill="#666666">[table]</text>
<polygon fill="none" stroke="#000000" points="535,-222.5 535,-252.5 703,-252.5 703,-222.5 535,-222.5"/>
<text text-anchor="start" x="542" y="-233.9" font-family="Arial" font-size="14.00" fill="#000000">id </text>
<text text-anchor="start" x="556.7798" y="-233.9" font-family="Arial" font-size="14.00" fill="#666666">[varchar(255)]</text>
<polygon fill="none" stroke="#000000" points="535,-192.5 535,-222.5 703,-222.5 703,-192.5 535,-192.5"/>
<text text-anchor="start" x="542" y="-203.9" font-family="Arial" font-size="14.00" fill="#000000">created_at </text>
<text text-anchor="start" x="612.028" y="-203.9" font-family="Arial" font-size="14.00" fill="#666666">[datetime]</text>
<polygon fill="none" stroke="#000000" points="535,-162.5 535,-192.5 703,-192.5 703,-162.5 535,-162.5"/>
<text text-anchor="start" x="542" y="-173.9" font-family="Arial" font-size="14.00" fill="#000000">updated_at </text>
<text text-anchor="start" x="615.9326" y="-173.9" font-family="Arial" font-size="14.00" fill="#666666">[datetime]</text>
<polygon fill="none" stroke="#000000" points="535,-132.5 535,-162.5 703,-162.5 703,-132.5 535,-132.5"/>
<text text-anchor="start" x="542" y="-143.9" font-family="Arial" font-size="14.00" fill="#000000">deleted_at </text>
<text text-anchor="start" x="611.2566" y="-143.9" font-family="Arial" font-size="14.00" fill="#666666">[datetime]</text>
<polygon fill="none" stroke="#000000" points="535,-102.5 535,-132.5 703,-132.5 703,-102.5 535,-102.5"/>
<text text-anchor="start" x="541.601" y="-113.9" font-family="Arial" font-size="14.00" fill="#000000">custom_id </text>
<text text-anchor="start" x="609.2798" y="-113.9" font-family="Arial" font-size="14.00" fill="#666666">[varchar(255)]</text>
<polygon fill="none" stroke="#000000" points="535,-72.5 535,-102.5 703,-102.5 703,-72.5 535,-72.5"/>
<text text-anchor="start" x="542" y="-83.9" font-family="Arial" font-size="14.00" fill="#000000">nonce </text>
<text text-anchor="start" x="584.021" y="-83.9" font-family="Arial" font-size="14.00" fill="#666666">[varchar(255)]</text>
<polygon fill="none" stroke="#000000" points="535,-42.5 535,-72.5 703,-72.5 703,-42.5 535,-42.5"/>
<text text-anchor="start" x="542" y="-53.9" font-family="Arial" font-size="14.00" fill="#000000">domain </text>
<text text-anchor="start" x="591.7882" y="-53.9" font-family="Arial" font-size="14.00" fill="#666666">[varchar(255)]</text>
</g>
<!-- facts&#45;&gt;scopes -->
<g id="edge1" class="edge">
<title>facts:scope_facts&#45;&gt;scopes:id</title>
<path fill="none" stroke="#000000" d="M596.7629,-436.7173C607.3423,-428.1405 595.1936,-401.5127 587,-382 574.467,-352.1533 547.533,-360.8467 535,-331 518.9112,-292.6853 493.4444,-237.5 535,-237.5"/>
<polygon fill="#000000" stroke="#000000" points="596.617,-436.7589 585.7665,-435.1724 591.8085,-438.1294 587,-439.5 587,-439.5 587,-439.5 591.8085,-438.1294 588.2335,-443.8276 596.617,-436.7589 596.617,-436.7589"/>
<text text-anchor="start" x="594.3255" y="-449.5" font-family="Arial" font-size="10.00" fill="#000000">FOREIGN KEY (scope_facts) REFERENCES scopes (id) ON UPDATE NO ACTION ON DELETE SET NULL MATCH NONE</text>
</g>
<!-- grants -->
<g id="node4" class="node">
<title>grants</title>
<polygon fill="#efefef" stroke="transparent" points="691,-694.5 691,-729.5 936,-729.5 936,-694.5 691,-694.5"/>
<polygon fill="none" stroke="#000000" points="691,-694.5 691,-729.5 936,-729.5 936,-694.5 691,-694.5"/>
<text text-anchor="start" x="767.4851" y="-707.3" font-family="Arial Bold" font-size="18.00" fill="#000000">grants</text>
<text text-anchor="start" x="817.4981" y="-707.3" font-family="Arial" font-size="14.00" fill="#000000"> </text>
<text text-anchor="start" x="821.3887" y="-707.3" font-family="Arial" font-size="14.00" fill="#666666">[table]</text>
<polygon fill="none" stroke="#000000" points="691,-664.5 691,-694.5 936,-694.5 936,-664.5 691,-664.5"/>
<text text-anchor="start" x="698" y="-675.9" font-family="Arial" font-size="14.00" fill="#000000">id </text>
<text text-anchor="start" x="712.7798" y="-675.9" font-family="Arial" font-size="14.00" fill="#666666">[varchar(255)]</text>
<polygon fill="none" stroke="#000000" points="691,-634.5 691,-664.5 936,-664.5 936,-634.5 691,-634.5"/>
<text text-anchor="start" x="698" y="-645.9" font-family="Arial" font-size="14.00" fill="#000000">created_at </text>
<text text-anchor="start" x="768.028" y="-645.9" font-family="Arial" font-size="14.00" fill="#666666">[datetime]</text>
<polygon fill="none" stroke="#000000" points="691,-604.5 691,-634.5 936,-634.5 936,-604.5 691,-604.5"/>
<text text-anchor="start" x="698" y="-615.9" font-family="Arial" font-size="14.00" fill="#000000">updated_at </text>
<text text-anchor="start" x="771.9326" y="-615.9" font-family="Arial" font-size="14.00" fill="#666666">[datetime]</text>
<polygon fill="none" stroke="#000000" points="691,-574.5 691,-604.5 936,-604.5 936,-574.5 691,-574.5"/>
<text text-anchor="start" x="698" y="-585.9" font-family="Arial" font-size="14.00" fill="#000000">deleted_at </text>
<text text-anchor="start" x="767.2566" y="-585.9" font-family="Arial" font-size="14.00" fill="#666666">[datetime]</text>
<polygon fill="none" stroke="#000000" points="691,-544.5 691,-574.5 936,-574.5 936,-544.5 691,-544.5"/>
<text text-anchor="start" x="698" y="-555.9" font-family="Arial" font-size="14.00" fill="#000000">hashed_grant_token </text>
<text text-anchor="start" x="829.5062" y="-555.9" font-family="Arial" font-size="14.00" fill="#666666">[varchar(255)]</text>
<polygon fill="none" stroke="#000000" points="691,-514.5 691,-544.5 936,-544.5 936,-514.5 691,-514.5"/>
<text text-anchor="start" x="698" y="-525.9" font-family="Arial" font-size="14.00" fill="#000000">domain </text>
<text text-anchor="start" x="747.7882" y="-525.9" font-family="Arial" font-size="14.00" fill="#666666">[varchar(255)]</text>
<polygon fill="none" stroke="#000000" points="691,-484.5 691,-514.5 936,-514.5 936,-484.5 691,-484.5"/>
<text text-anchor="start" x="698" y="-495.9" font-family="Arial" font-size="14.00" fill="#000000">version </text>
<text text-anchor="start" x="747.0056" y="-495.9" font-family="Arial" font-size="14.00" fill="#666666">[varchar(255)]</text>
<polygon fill="none" stroke="#000000" points="691,-454.5 691,-484.5 936,-484.5 936,-454.5 691,-454.5"/>
<text text-anchor="start" x="697.9734" y="-465.9" font-family="Arial" font-size="14.00" fill="#000000">allowed_http_methods </text>
<text text-anchor="start" x="841.9074" y="-465.9" font-family="Arial" font-size="14.00" fill="#666666">[varchar(255)]</text>
<polygon fill="none" stroke="#000000" points="691,-424.5 691,-454.5 936,-454.5 936,-424.5 691,-424.5"/>
<text text-anchor="start" x="698" y="-435.9" font-family="Arial" font-size="14.00" fill="#000000">paths </text>
<text text-anchor="start" x="736.129" y="-435.9" font-family="Arial" font-size="14.00" fill="#666666">[json]</text>
</g>
<!-- casbin_rule -->
<g id="node6" class="node">
<title>casbin_rule</title>
<polygon fill="#efefef" stroke="transparent" points="1040,-664.5 1040,-699.5 1201,-699.5 1201,-664.5 1040,-664.5"/>
<polygon fill="none" stroke="#000000" points="1040,-664.5 1040,-699.5 1201,-699.5 1201,-664.5 1040,-664.5"/>
<text text-anchor="start" x="1053.4827" y="-677.3" font-family="Arial Bold" font-size="18.00" fill="#000000">casbin_rule</text>
<text text-anchor="start" x="1145.5005" y="-677.3" font-family="Arial" font-size="14.00" fill="#000000"> </text>
<text text-anchor="start" x="1149.3911" y="-677.3" font-family="Arial" font-size="14.00" fill="#666666">[table]</text>
<polygon fill="none" stroke="#000000" points="1040,-634.5 1040,-664.5 1201,-664.5 1201,-634.5 1040,-634.5"/>
<text text-anchor="start" x="1046.9923" y="-645.9" font-family="Arial" font-size="14.00" fill="#000000">p_type </text>
<text text-anchor="start" x="1092.9039" y="-645.9" font-family="Arial" font-size="14.00" fill="#666666">[VARCHAR(32)]</text>
<polygon fill="none" stroke="#000000" points="1040,-604.5 1040,-634.5 1201,-634.5 1201,-604.5 1040,-604.5"/>
<text text-anchor="start" x="1047" y="-615.9" font-family="Arial" font-size="14.00" fill="#000000">v0 </text>
<text text-anchor="start" x="1065.6732" y="-615.9" font-family="Arial" font-size="14.00" fill="#666666">[VARCHAR(255)]</text>
<polygon fill="none" stroke="#000000" points="1040,-574.5 1040,-604.5 1201,-604.5 1201,-574.5 1040,-574.5"/>
<text text-anchor="start" x="1047" y="-585.9" font-family="Arial" font-size="14.00" fill="#000000">v1 </text>
<text text-anchor="start" x="1065.6732" y="-585.9" font-family="Arial" font-size="14.00" fill="#666666">[VARCHAR(255)]</text>
<polygon fill="none" stroke="#000000" points="1040,-544.5 1040,-574.5 1201,-574.5 1201,-544.5 1040,-544.5"/>
<text text-anchor="start" x="1047" y="-555.9" font-family="Arial" font-size="14.00" fill="#000000">v2 </text>
<text text-anchor="start" x="1065.6732" y="-555.9" font-family="Arial" font-size="14.00" fill="#666666">[VARCHAR(255)]</text>
<polygon fill="none" stroke="#000000" points="1040,-514.5 1040,-544.5 1201,-544.5 1201,-514.5 1040,-514.5"/>
<text text-anchor="start" x="1047" y="-525.9" font-family="Arial" font-size="14.00" fill="#000000">v3 </text>
<text text-anchor="start" x="1065.6732" y="-525.9" font-family="Arial" font-size="14.00" fill="#666666">[VARCHAR(255)]</text>
<polygon fill="none" stroke="#000000" points="1040,-484.5 1040,-514.5 1201,-514.5 1201,-484.5 1040,-484.5"/>
<text text-anchor="start" x="1047" y="-495.9" font-family="Arial" font-size="14.00" fill="#000000">v4 </text>
<text text-anchor="start" x="1065.6732" y="-495.9" font-family="Arial" font-size="14.00" fill="#666666">[VARCHAR(255)]</text>
<polygon fill="none" stroke="#000000" points="1040,-454.5 1040,-484.5 1201,-484.5 1201,-454.5 1040,-454.5"/>
<text text-anchor="start" x="1047" y="-465.9" font-family="Arial" font-size="14.00" fill="#000000">v5 </text>
<text text-anchor="start" x="1065.6732" y="-465.9" font-family="Arial" font-size="14.00" fill="#666666">[VARCHAR(255)]</text>
</g>
</g>
</svg>
