<?xml version="1.0" encoding="UTF-8" standalone="no"?>
<!DOCTYPE svg PUBLIC "-//W3C//DTD SVG 1.1//EN"
 "http://www.w3.org/Graphics/SVG/1.1/DTD/svg11.dtd">
<!-- Generated by graphviz version 2.40.1 (20161225.0304)
 -->
<!-- Title: scopes Pages: 1 -->
<svg width="723pt" height="772pt"
 viewBox="0.00 0.00 722.50 772.00" xmlns="http://www.w3.org/2000/svg" xmlns:xlink="http://www.w3.org/1999/xlink">
<g id="graph0" class="graph" transform="scale(1 1) rotate(0) translate(4 768)">
<title>scopes</title>
<polygon fill="#ffffff" stroke="transparent" points="-4,4 -4,-768 718.5,-768 718.5,4 -4,4"/>
<!-- scopes -->
<g id="node1" class="node">
<title>scopes</title>
<polygon fill="#efefef" stroke="transparent" points="63.5,-255.5 63.5,-290.5 231.5,-290.5 231.5,-255.5 63.5,-255.5"/>
<polygon fill="none" stroke="#000000" points="63.5,-255.5 63.5,-290.5 231.5,-290.5 231.5,-255.5 63.5,-255.5"/>
<text text-anchor="start" x="97.9823" y="-268.3" font-family="Arial Bold" font-size="18.00" fill="#000000">scopes</text>
<text text-anchor="start" x="155.0009" y="-268.3" font-family="Arial" font-size="14.00" fill="#000000"> </text>
<text text-anchor="start" x="158.8915" y="-268.3" font-family="Arial" font-size="14.00" fill="#666666">[table]</text>
<polygon fill="none" stroke="#000000" points="63.5,-225.5 63.5,-255.5 231.5,-255.5 231.5,-225.5 63.5,-225.5"/>
<text text-anchor="start" x="70.5" y="-236.9" font-family="Arial" font-size="14.00" fill="#000000">id </text>
<text text-anchor="start" x="85.2798" y="-236.9" font-family="Arial" font-size="14.00" fill="#666666">[varchar(255)]</text>
<polygon fill="none" stroke="#000000" points="63.5,-195.5 63.5,-225.5 231.5,-225.5 231.5,-195.5 63.5,-195.5"/>
<text text-anchor="start" x="70.5" y="-206.9" font-family="Arial" font-size="14.00" fill="#000000">created_at </text>
<text text-anchor="start" x="140.528" y="-206.9" font-family="Arial" font-size="14.00" fill="#666666">[datetime]</text>
<polygon fill="none" stroke="#000000" points="63.5,-165.5 63.5,-195.5 231.5,-195.5 231.5,-165.5 63.5,-165.5"/>
<text text-anchor="start" x="70.5" y="-176.9" font-family="Arial" font-size="14.00" fill="#000000">updated_at </text>
<text text-anchor="start" x="144.4326" y="-176.9" font-family="Arial" font-size="14.00" fill="#666666">[datetime]</text>
<polygon fill="none" stroke="#000000" points="63.5,-135.5 63.5,-165.5 231.5,-165.5 231.5,-135.5 63.5,-135.5"/>
<text text-anchor="start" x="70.5" y="-146.9" font-family="Arial" font-size="14.00" fill="#000000">deleted_at </text>
<text text-anchor="start" x="139.7566" y="-146.9" font-family="Arial" font-size="14.00" fill="#666666">[datetime]</text>
<polygon fill="none" stroke="#000000" points="63.5,-105.5 63.5,-135.5 231.5,-135.5 231.5,-105.5 63.5,-105.5"/>
<text text-anchor="start" x="70.101" y="-116.9" font-family="Arial" font-size="14.00" fill="#000000">custom_id </text>
<text text-anchor="start" x="137.7798" y="-116.9" font-family="Arial" font-size="14.00" fill="#666666">[varchar(255)]</text>
<polygon fill="none" stroke="#000000" points="63.5,-75.5 63.5,-105.5 231.5,-105.5 231.5,-75.5 63.5,-75.5"/>
<text text-anchor="start" x="70.5" y="-86.9" font-family="Arial" font-size="14.00" fill="#000000">nonce </text>
<text text-anchor="start" x="112.521" y="-86.9" font-family="Arial" font-size="14.00" fill="#666666">[varchar(255)]</text>
<polygon fill="none" stroke="#000000" points="63.5,-45.5 63.5,-75.5 231.5,-75.5 231.5,-45.5 63.5,-45.5"/>
<text text-anchor="start" x="70.5" y="-56.9" font-family="Arial" font-size="14.00" fill="#000000">domain </text>
<text text-anchor="start" x="120.2882" y="-56.9" font-family="Arial" font-size="14.00" fill="#666666">[varchar(255)]</text>
<polygon fill="none" stroke="#000000" stroke-width="3" points="62,-44.5 62,-292.5 233,-292.5 233,-44.5 62,-44.5"/>
</g>
<!-- facts -->
<g id="node2" class="node">
<title>facts</title>
<polygon fill="#efefef" stroke="transparent" points="43.5,-685.5 43.5,-720.5 250.5,-720.5 250.5,-685.5 43.5,-685.5"/>
<polygon fill="none" stroke="#000000" points="43.5,-685.5 43.5,-720.5 250.5,-720.5 250.5,-685.5 43.5,-685.5"/>
<text text-anchor="start" x="106.9863" y="-698.3" font-family="Arial Bold" font-size="18.00" fill="#000000">facts</text>
<text text-anchor="start" x="144.9969" y="-698.3" font-family="Arial" font-size="14.00" fill="#000000"> </text>
<text text-anchor="start" x="148.8875" y="-698.3" font-family="Arial" font-size="14.00" fill="#666666">[table]</text>
<polygon fill="none" stroke="#000000" points="43.5,-655.5 43.5,-685.5 250.5,-685.5 250.5,-655.5 43.5,-655.5"/>
<text text-anchor="start" x="50.5" y="-666.9" font-family="Arial" font-size="14.00" fill="#000000">id </text>
<text text-anchor="start" x="65.2798" y="-666.9" font-family="Arial" font-size="14.00" fill="#666666">[varchar(255)]</text>
<polygon fill="none" stroke="#000000" points="43.5,-625.5 43.5,-655.5 250.5,-655.5 250.5,-625.5 43.5,-625.5"/>
<text text-anchor="start" x="50.5" y="-636.9" font-family="Arial" font-size="14.00" fill="#000000">created_at </text>
<text text-anchor="start" x="120.528" y="-636.9" font-family="Arial" font-size="14.00" fill="#666666">[datetime]</text>
<polygon fill="none" stroke="#000000" points="43.5,-595.5 43.5,-625.5 250.5,-625.5 250.5,-595.5 43.5,-595.5"/>
<text text-anchor="start" x="50.5" y="-606.9" font-family="Arial" font-size="14.00" fill="#000000">updated_at </text>
<text text-anchor="start" x="124.4326" y="-606.9" font-family="Arial" font-size="14.00" fill="#666666">[datetime]</text>
<polygon fill="none" stroke="#000000" points="43.5,-565.5 43.5,-595.5 250.5,-595.5 250.5,-565.5 43.5,-565.5"/>
<text text-anchor="start" x="50.5" y="-576.9" font-family="Arial" font-size="14.00" fill="#000000">deleted_at </text>
<text text-anchor="start" x="119.7566" y="-576.9" font-family="Arial" font-size="14.00" fill="#666666">[datetime]</text>
<polygon fill="none" stroke="#000000" points="43.5,-535.5 43.5,-565.5 250.5,-565.5 250.5,-535.5 43.5,-535.5"/>
<text text-anchor="start" x="50.5" y="-546.9" font-family="Arial" font-size="14.00" fill="#000000">hashed_value </text>
<text text-anchor="start" x="141.5406" y="-546.9" font-family="Arial" font-size="14.00" fill="#666666">[varchar(255)]</text>
<polygon fill="none" stroke="#000000" points="43.5,-505.5 43.5,-535.5 250.5,-535.5 250.5,-505.5 43.5,-505.5"/>
<text text-anchor="start" x="50.1445" y="-516.9" font-family="Arial" font-size="14.00" fill="#000000">encrypted_value </text>
<text text-anchor="start" x="156.7363" y="-516.9" font-family="Arial" font-size="14.00" fill="#666666">[varchar(255)]</text>
<polygon fill="none" stroke="#000000" points="43.5,-475.5 43.5,-505.5 250.5,-505.5 250.5,-475.5 43.5,-475.5"/>
<text text-anchor="start" x="50.5" y="-486.9" font-family="Arial" font-size="14.00" fill="#000000">domain </text>
<text text-anchor="start" x="100.2882" y="-486.9" font-family="Arial" font-size="14.00" fill="#666666">[varchar(255)]</text>
<polygon fill="none" stroke="#000000" points="43.5,-445.5 43.5,-475.5 250.5,-475.5 250.5,-445.5 43.5,-445.5"/>
<text text-anchor="start" x="50.5" y="-456.9" font-family="Arial" font-size="14.00" fill="#000000">fact_type_facts </text>
<text text-anchor="start" x="148.5392" y="-456.9" font-family="Arial" font-size="14.00" fill="#666666">[varchar(255)]</text>
<polygon fill="none" stroke="#000000" points="43.5,-415.5 43.5,-445.5 250.5,-445.5 250.5,-415.5 43.5,-415.5"/>
<text text-anchor="start" x="50.5" y="-426.9" font-family="Arial" font-size="14.00" fill="#000000">scope_facts </text>
<text text-anchor="start" x="129.0848" y="-426.9" font-family="Arial" font-size="14.00" fill="#666666">[varchar(255)]</text>
</g>
<!-- facts&#45;&gt;scopes -->
<g id="edge1" class="edge">
<title>facts:scope_facts&#45;&gt;scopes:id</title>
<path fill="none" stroke="#000000" d="M146.4919,-405.2329C138.2905,-366.9264 82.3398,-380.3922 63.5,-337 46.4192,-297.6591 20.6111,-240.5 63.5,-240.5"/>
<polygon fill="#000000" stroke="#000000" points="146.5227,-405.5479 143.0215,-415.9398 147.0114,-410.5239 147.5,-415.5 147.5,-415.5 147.5,-415.5 147.0114,-410.5239 151.9785,-415.0602 146.5227,-405.5479 146.5227,-405.5479"/>
<text text-anchor="start" x="154.8255" y="-425.5" font-family="Arial" font-size="10.00" fill="#000000">FOREIGN KEY (scope_facts) REFERENCES scopes (id) ON UPDATE NO ACTION ON DELETE SET NULL MATCH NONE</text>
</g>
</g>
</svg>
