<svg id="CLOUD" xmlns="http://www.w3.org/2000/svg" viewBox="0 0 500 500"><defs><style>.cls-1{fill:#5c72b5;}.cls-2{fill:#404b7c;}.cls-3{fill:#ecbdbb;}.cls-4{fill:#9ab3da;}.cls-5{fill:#6b81be;}.cls-6{fill:#f68d88;}.cls-7{fill:#fff;}</style></defs><title>Product Release</title><path class="cls-1" d="M38,253.8a13.21,13.21,0,0,1,16.45-18c11.77,3.87,11.46,14.09,11.46,14.09s12.53-3.84,18.68,7S73.32,277,60.17,270.09c0,0-27,9.52-29-5.08C29.87,255.61,38,253.8,38,253.8Z"/><path class="cls-1" d="M391.25,141.5c-18-3-17,15-17,15s-16.25,7.25-7,19.5,31.5,2.75,31.5,2.75,8.5,4.25,18,3.5,13.5-3.5,13.5-3.5,15,7.5,25.75,2.75,7.25-29.5-13.5-28.75c0,0-2-25.25-23.75-29S391.25,141.5,391.25,141.5Z"/><path class="cls-2" d="M138.14,324.54s-23.14-20.4-28.87-25.31,0.58-14.11,5.84-12.38,34.24,20.17,35.61,22.92-2.5,12.26-5.89,14.52A6.46,6.46,0,0,1,138.14,324.54Z"/><path class="cls-1" d="M138.53,321.34a0.41,0.41,0,0,1-.26-0.09l-1.9-1.51,0,0c-5.17-5.35-12.6-10.86-17.52-14.51-5.16-3.83-5.61-4.23-5.35-4.79,0-.11.1-0.23,0.15-0.37a7.93,7.93,0,0,1,3.08-4,0.41,0.41,0,0,1,.44,0c14.76,8.5,25.61,21.33,25.72,21.46a0.41,0.41,0,0,1-.06.59l-4,3.16A0.41,0.41,0,0,1,138.53,321.34Zm-1.62-2.23,1.63,1.29,3.41-2.69c-1.77-2-11.78-13.15-25-20.82a7.09,7.09,0,0,0-2.57,3.45l-0.1.25a54.57,54.57,0,0,0,5,3.94C124.24,308.19,131.69,313.72,136.91,319.11Z"/><path class="cls-3" d="M151.49,334l-9.81,3.52-2.69-8.3-3.29-10.15c2.56-4.05,7.15-1.92,7.15-1.92l6.64,12.95Z"/><path class="cls-2" d="M151.49,334l-9.81,3.52-2.69-8.3a34.18,34.18,0,0,1,10.5.87Z"/><path class="cls-4" d="M139.6,353l-4-12.48s5.28-9.12,13-9.12,10.4,2.08,10.4,2.08l5.12,11.2a17,17,0,0,1-11.52,7.36A52.5,52.5,0,0,1,139.6,353Z"/><path class="cls-5" d="M326.48,390.84s-6.65,8.24-16,17.91c-2.13,2.2-4.41,4.48-6.78,6.75-8.88,8.51-92.2,37.31-115.85,29.38a14.3,14.3,0,0,1-2-.83c-9.5-4.9-19.52-25.13-27.53-45.4-9.25-23.41-15.82-46.89-15.82-46.89s4.64-12,17.6-7.68c0,0,18.4,26.92,31.63,44.08,5.43,7.05,10,12.45,12,13.67,2.79,1.65,13.88-2.49,26.25-8.08,18.83-8.51,40.61-20.39,40.61-20.39l11.28,3.53Z"/><path class="cls-2" d="M326.48,390.84s-6.65,8.24-16,17.91c-19-9.89-36.45-29.9-36.45-29.9s3-.82,7.87-2Z"/><path class="cls-2" d="M230,393.74l-42.16,51.14a14.3,14.3,0,0,1-2-.83c-9.5-4.9-19.52-25.13-27.53-45.4l33.4-10.49c5.43,7.05,10,12.45,12,13.67C206.53,403.47,217.63,399.34,230,393.74Z"/><path class="cls-4" d="M303.39,410.71a0.41,0.41,0,0,1-.36-0.21c-4.29-7.42,4.49-14.53,4.58-14.6a0.41,0.41,0,0,1,.51.64c-0.08.07-8.31,6.74-4.38,13.55A0.41,0.41,0,0,1,303.39,410.71Z"/><path class="cls-4" d="M265.05,409.67c-4.93,0-10.42-2.47-10.7-2.6a0.41,0.41,0,0,1,.34-0.75c0.08,0,7.9,3.55,13,2.22,7.87-2.06,29-13.68,29.18-13.79a0.41,0.41,0,1,1,.4.72c-0.87.48-21.4,11.78-29.37,13.87A11.2,11.2,0,0,1,265.05,409.67Z"/><path class="cls-4" d="M201.08,421.11H201c-12.08-2.46-39.89-51.36-48.92-70.39a0.41,0.41,0,1,1,.74-0.35c10.71,22.58,37.47,67.73,48.34,69.94A0.41,0.41,0,0,1,201.08,421.11Z"/><path class="cls-2" d="M104.42,318.06S76.25,305.5,69.31,302.53,65.65,288.88,71.19,289s38.7,9,40.83,11.24,1.28,12.45-1.29,15.62A6.46,6.46,0,0,1,104.42,318.06Z"/><path class="cls-1" d="M103.72,314.9l-0.15,0L101.3,314l0,0c-6.53-3.56-15.27-6.6-21.05-8.61-6.07-2.11-6.62-2.36-6.54-3,0-.11,0-0.25,0-0.4a7.93,7.93,0,0,1,1.76-4.71,0.41,0.41,0,0,1,.41-0.14c16.62,3.71,30.81,12.71,31,12.8a0.41,0.41,0,0,1,.12.58l-2.88,4.21A0.41,0.41,0,0,1,103.72,314.9Zm-2.09-1.66,1.94,0.75L106,310.4c-2.29-1.41-15.17-9-30.07-12.41A7.09,7.09,0,0,0,74.52,302c0,0.1,0,.19,0,0.27a54.52,54.52,0,0,0,6,2.26C86.27,306.6,95,309.65,101.62,313.23Z"/><path class="cls-3" d="M119.64,325.49l-9,5.21-3.42-6.37-5.75-10.72c1.79-4.44,6.69-3.16,6.69-3.16l9,11.8Z"/><path class="cls-2" d="M117.16,322.24l2.48,3.24-9,5.21-3.42-6.37A12.86,12.86,0,0,1,117.16,322.24Z"/><path class="cls-4" d="M111.33,346.34l-6.16-11.56s3.57-9.91,11.12-11.28,10.6,0.19,10.6.19l7,10.1a17,17,0,0,1-10,9.29A52.5,52.5,0,0,1,111.33,346.34Z"/><path class="cls-5" d="M298.57,350.61s-3,28.7-9.83,39.37c-17.49,13.28-93.66,44.4-115.69,37.66s-59.11-83.09-59.11-83.09,2.43-12.63,15.94-10.69c0,0,44.12,43.47,51.78,46.3,4.16,1.54,21.54-7.46,38.34-18.83,15.83-21.69,28.63-20.19,28.63-20.19Z"/><path class="cls-4" d="M180.6,428.94a0.41,0.41,0,0,1,0-.82c13.15-.05,33.58-5.11,57.53-14.25,20.06-7.66,39.84-17.16,50.37-24.22a0.41,0.41,0,1,1,.46.68c-10.58,7.09-30.42,16.63-50.54,24.31-13.92,5.31-40,14.23-57.82,14.31h0Z"/><path class="cls-4" d="M181.67,380.59l-0.14,0c-4.44-1.64-20.79-16.59-33.72-28.83a0.41,0.41,0,0,1,.57-0.6c18.46,17.49,30,27.4,33.44,28.66A0.41,0.41,0,0,1,181.67,380.59Z"/><path class="cls-4" d="M245,382.71c-4.86,0-10.39-2.66-10.68-2.8a0.41,0.41,0,1,1,.36-0.74c0.08,0,8.53,4.1,13.4,2.21,5.93-2.3,21-13.61,21.14-13.72a0.41,0.41,0,0,1,.5.66c-0.62.47-15.31,11.49-21.34,13.83A9.36,9.36,0,0,1,245,382.71Z"/><path class="cls-4" d="M183.4,402.39c-12.78,0-48.45-44.19-60.2-60.57a0.41,0.41,0,0,1,.67-0.48c15,20.89,49.08,61.37,60,60.2,24-2.54,75.92-44.16,76.44-44.58a0.41,0.41,0,1,1,.52.64c-0.13.11-13.25,10.66-29.19,21.39-21.43,14.43-37.48,22.29-47.68,23.37Z"/><path class="cls-6" d="M378.52,265.86s34.34,35.62,41.8,58.22-22.18,19.83-55.24-15.78Z"/><path class="cls-2" d="M150.77,146.24c9.91,39.61,31.93,82.39,40.43,98.09-26.93,6.11-58.24,9.43-94.63,8.74C96.57,253.06,107.08,192.5,150.77,146.24Z"/><path class="cls-6" d="M355.06,92.47s-4.84,36.74-34.82,75.09c-16.1-22.12-44.77-56.41-70.72-79.37C278.33,81.15,315.74,82.91,355.06,92.47Z"/><path class="cls-5" d="M320.24,167.56c-23.79,30.44-63.42,61.88-129,76.76-8.5-15.69-30.52-58.48-40.43-98.09,23.55-24.93,55.66-47.53,98.74-58.05C275.47,111.15,304.14,145.44,320.24,167.56Z"/><path class="cls-6" d="M287.43,339.56a0.41,0.41,0,0,1-.18,0L96.39,244.8a0.41,0.41,0,0,1,.37-0.74l190.85,94.72A0.41,0.41,0,0,1,287.43,339.56Z"/><path class="cls-6" d="M359.88,298.29a0.41,0.41,0,0,1-.41-0.39L346.65,88.34a0.41,0.41,0,1,1,.82-0.05l12.82,209.57a0.41,0.41,0,0,1-.39.44h0Z"/><path class="cls-6" d="M301.34,317.49a0.41,0.41,0,0,1-.26-0.09L123.51,176.61A0.41,0.41,0,1,1,124,176L301.6,316.75A0.41,0.41,0,0,1,301.34,317.49Z"/><path class="cls-6" d="M322.56,302.6h-0.11a0.39,0.39,0,0,1-.39-0.31C321.73,301,289.34,173,274.33,113c-7.66-30.57-7.66-30.92-7.66-31.09a0.41,0.41,0,0,1,.41-0.41,0.42,0.42,0,0,1,.42.39c0.06,0.44,1.43,6.18,7.63,30.91,15,60,47.4,188,47.72,189.3A0.41,0.41,0,0,1,322.56,302.6Z"/><path class="cls-5" d="M127.24,64.46C53.57,132.88,96.57,253.06,96.57,253.06s8-30.43,30.3-65.14C124.26,176.29,110.74,110.53,127.24,64.46Z"/><path class="cls-2" d="M355.06,92.47S263.22,2.25,170.88,37.26c25.34,2.95,70.66,21.48,110.67,52.3C303.55,87.22,328,87.87,355.06,92.47Z"/><path class="cls-6" d="M253.21,94.47a215,215,0,0,1,28.35-4.92c-40-30.82-85.33-49.35-110.67-52.3A131.51,131.51,0,0,0,146.48,49.6a136.12,136.12,0,0,0-19.24,14.86c-16.49,46.07-3,111.83-.37,123.47a243.37,243.37,0,0,1,27.59-35.4C178,127.6,210.12,105,253.21,94.47Z"/><path class="cls-6" d="M378.52,265.86c-4,44.07-19,79.74-31.24,102.29a199.94,199.94,0,0,1-16.78,26.54l-0.07.09c-87.66,2.24-102.37-61.1-102.37-61.1s27.83-2.56,51.82-46.39,46.71-54.81,46.71-54.81a118.58,118.58,0,0,1,30.07,14.29A119.92,119.92,0,0,1,378.52,265.86Z"/><path class="cls-1" d="M357,243.68c-5.67-2.38-14.61,4.16-21.11,17.6a81,81,0,0,1,17.92-.53s8.1,7.14,11.2,13.44C365,274.18,369.67,249,357,243.68Z"/><path class="cls-3" d="M329.9,390.4h0a132.94,132.94,0,0,1-45.19-9.58,106.13,106.13,0,0,1-29.15-18c-14.49-12.63-20.24-25-20.29-25.17a0.41,0.41,0,1,1,.75-0.34c0.06,0.12,5.75,12.41,20.12,24.92,13.26,11.55,36.82,25.66,73.8,27.3A0.41,0.41,0,0,1,329.9,390.4Z"/><path class="cls-2" d="M347.28,368.15a199.94,199.94,0,0,1-16.78,26.54c-14.72-12.2-24.5-36.86-24.5-36.86Z"/><path class="cls-3" d="M372,304.89h-0.1a0.41,0.41,0,0,1-.3-0.5,257.59,257.59,0,0,0,6.21-35.27,0.41,0.41,0,1,1,.82.09,258.43,258.43,0,0,1-6.23,35.38A0.41,0.41,0,0,1,372,304.89Z"/><polygon class="cls-5" points="321.79 295.93 288.3 355.44 268.68 320.67 302.17 261.17 308.53 272.43 314.78 283.52 321.79 295.93"/><path class="cls-4" d="M314.78,283.52L308.86,294a2,2,0,0,1-3.51,0l-3.36-6a4.12,4.12,0,0,1,0-4l6.54-11.62Z"/><polygon class="cls-5" points="363.48 395.11 396.97 335.6 321.79 295.93 288.3 355.44 363.48 395.11"/><path class="cls-2" d="M291.06,350.94a0.41,0.41,0,0,1-.36-0.61l29.34-52.15a0.41,0.41,0,1,1,.72.4l-29.34,52.15A0.41,0.41,0,0,1,291.06,350.94Z"/><path class="cls-4" d="M335.67,327.08l6-10.74a1.84,1.84,0,0,0-.75-2.53l-14.36-7.58a1.84,1.84,0,0,0-2.46.73l-6,10.74a1.84,1.84,0,0,0,.75,2.53l14.36,7.58A1.84,1.84,0,0,0,335.67,327.08Z"/><polygon class="cls-5" points="302.17 261.17 377.35 300.84 396.97 335.6 321.79 295.93 302.17 261.17"/><polygon class="cls-4" points="308.53 272.43 383.7 312.1 389.96 323.19 314.78 283.52 308.53 272.43"/><path class="cls-2" d="M393.6,334.24a0.41,0.41,0,0,1-.19,0L321.6,296.3a0.41,0.41,0,0,1-.17-0.16l-15.49-27.45a0.41,0.41,0,0,1,.72-0.41l15.43,27.35,71.71,37.84A0.41,0.41,0,0,1,393.6,334.24Z"/><path class="cls-4" d="M368.95,374.5h0a2.6,2.6,0,0,1-3.47,1l-13-6.87a2.6,2.6,0,0,1-1.05-3.57h0a2.6,2.6,0,0,1,3.47-1l12.49,6.59,0.54,0.29A2.6,2.6,0,0,1,368.95,374.5Z"/><path class="cls-4" d="M363.85,383.56h0a2.6,2.6,0,0,1-3.47,1l-13-6.88a2.6,2.6,0,0,1-1.05-3.57h0a2.6,2.6,0,0,1,3.47-1l13,6.88A2.6,2.6,0,0,1,363.85,383.56Z"/><path class="cls-3" d="M371.43,297.11s-6.13-7.14-11.36-9.92-18.45-4.59-20.69-4.05,9.6,4.69,9.6,4.69-9.17-2-10.77-.53,11.2,4.27,11.2,4.27-8.42-1.07-9.38.11,11.84,4.48,11.84,4.48-7.25-1.49-8.64.11,14.08,4.59,14.61,4.91,3.41,3.09,6.18,3.73,3.73-.91,3.73-0.91Z"/><path class="cls-3" d="M417.82,335.81c-3.85,6.49-19.62-.3-35.16-14.94A123.43,123.43,0,0,1,367.75,304l3.68-6.88s10,3.17,20.75,7.18c5,1.88,10.25,3.94,14.64,5.95A21.49,21.49,0,0,1,419.3,327,13.73,13.73,0,0,1,417.82,335.81Z"/><path class="cls-6" d="M400.38,307.88a8.8,8.8,0,0,1,5.44-.11c3.31,0.85,20.79,15.78,14.82,27.41s-30.82-.64-30.28-8.42S400.38,307.88,400.38,307.88Z"/><path class="cls-3" d="M390.94,324.12l-0.12,0a0.41,0.41,0,0,1-.28-0.51c2.17-7.34,9.22-15.63,9.52-16a0.41,0.41,0,0,1,.14-0.11,9.15,9.15,0,0,1,5.71-.13c1.75,0.45,6.82,4.34,10.79,9.39a0.41,0.41,0,1,1-.65.51c-4.1-5.22-9-8.75-10.35-9.11a8.76,8.76,0,0,0-5.09.05c-0.72.86-7.28,8.8-9.29,15.6A0.41,0.41,0,0,1,390.94,324.12Z"/><path class="cls-1" d="M389.76,327c-2.35-1.85-4.73-3.91-7.11-6.15,10.4-4.67,9.89-14,9.53-16.59,2.82,1.05,5.69,2.16,8.44,3.29a4.21,4.21,0,0,1,2.6,3.44c0.47,4.37-.19,11.87-8.74,16.44A4.32,4.32,0,0,1,389.76,327Z"/><path class="cls-6" d="M326.59,232.48C307.07,227.79,246,254.34,237,269.7s5.81,42.6,11.36,46.87,19.94-2.08,21.43-6.56-6-27.94-6-27.94,29-9.17,44.15-15.36S326.59,232.48,326.59,232.48Z"/><path class="cls-3" d="M292.65,272.84a0.41,0.41,0,0,1-.14-0.8c6.26-2.21,11.39-4.13,15.26-5.71,11.94-4.88,16.55-23.48,18-31.25a0.41,0.41,0,0,1,.81.15c-1.45,7.9-6.16,26.83-18.48,31.87-3.88,1.58-9,3.51-15.3,5.72Z"/><path class="cls-3" d="M262,281.95a0.41,0.41,0,0,1-.28-0.11c-8-7.38-20.19-7.78-20.31-7.78a0.41,0.41,0,0,1-.4-0.42,0.41,0.41,0,0,1,.42-0.4c0.13,0,12.62.41,20.85,8A0.41,0.41,0,0,1,262,281.95Z"/><path class="cls-3" d="M259.19,281.95l-0.11,0c-9.35-2.7-15.17-1-15.23-1a0.41,0.41,0,0,1-.24-0.79c0.24-.08,6.09-1.82,15.7,1A0.41,0.41,0,0,1,259.19,281.95Z"/><path class="cls-1" d="M248.62,315.41l7.59,11.65s12,0.8,16.12-8.05l-4.77-10.92S255.39,305.93,248.62,315.41Z"/><path class="cls-3" d="M256.31,325.79l17.17,18.93s8.16,15.84,10.72,17.44,18.39-.16,19.35-1.44-3.41-5-6.61-6.24a45,45,0,0,0-7.25-2l-4.27-6.61s5.55,1,5.87,1.07a28.18,28.18,0,0,0,5.44,1.39c1.39,0,.85-1.81-3.52-4.69S281.69,340,281.69,340l-10.13-20.9S264.63,316.25,256.31,325.79Z"/><path class="cls-2" d="M298.06,357.4h0c-3.66-.2-9.2-0.49-9.68-0.48a0.41,0.41,0,0,1-.24-0.78c0.13-.06.2-0.1,10,0.44A0.41,0.41,0,0,1,298.06,357.4Z"/><path class="cls-2" d="M300,360.52h0l-12.8-.64a0.41,0.41,0,0,1-.39-0.43,0.42,0.42,0,0,1,.43-0.39l12.8,0.64A0.41,0.41,0,0,1,300,360.52Z"/><path class="cls-2" d="M396.75,225.13c-2.34,9.06-20.69,15.25-38.6,12-14.51-2.59-11.88-12.25-10.36-15.82v0c0.29-.68.54-1.13,0.61-1.27l0,0s-9.38-5-10.34-7.25,8.32-3.2,8.32-3.2-3.84-2.56-3.73-4.58,13.12-6.08,20.26-5.55c0,0-4.37-7.57-3.84-11.09s6.82-.32,14.93,3.41,16.53,8.75,16,22.39c0,0,6.63,1.4,7.08,7.48A10.8,10.8,0,0,1,396.75,225.13Z"/><path class="cls-3" d="M369.78,241.87l-6.15,7.42L360,253.7l-4.8,2.56c-1.6-2.24-2.34-6.72-2.34-6.72l6.75-13.92,1.68-3.46Z"/><path class="cls-2" d="M369.78,241.87l-6.15,7.42c-4.2-3.88-4.57-9.47-4.06-13.66l1.68-3.46Z"/><path class="cls-3" d="M381,211.32c-14.3-8.53-21.43,9.76-21.27,20.31s10.4,20.15,21.75,7.68S390.09,216.75,381,211.32Z"/><path class="cls-3" d="M362.74,222.89s-2.35-7.89-7.46-6.61S352.5,229.5,361,228.54Z"/><path class="cls-2" d="M359.54,225.48a0.41,0.41,0,0,1-.41-0.38,7.08,7.08,0,0,0-4.16-6.36,0.41,0.41,0,0,1,.27-0.78c0.18,0.06,4.3,1.55,4.72,7.08a0.41,0.41,0,0,1-.38.44h0Z"/><path class="cls-2" d="M355.5,224.24a0.41,0.41,0,0,1-.38-0.58,7.85,7.85,0,0,1,2.77-3.21,0.41,0.41,0,0,1,.41.71,7.13,7.13,0,0,0-2.43,2.84A0.41,0.41,0,0,1,355.5,224.24Z"/><path class="cls-2" d="M376.86,237.16a11.7,11.7,0,0,1-2.32-.27,0.41,0.41,0,0,1,.18-0.81c1.27,0.28,3.28.41,3.77-.16a0.69,0.69,0,0,0,0-.77,12,12,0,0,1-.26-6.06,0.41,0.41,0,0,1,.8.19,11.31,11.31,0,0,0,.23,5.58,1.49,1.49,0,0,1-.16,1.6A3,3,0,0,1,376.86,237.16Z"/><path class="cls-2" d="M376.52,224.12s1-2.57.66-3.33-1,.38-1,0.38-4.43-3.39-7.43,1.26C368.7,222.43,372.2,220.79,376.52,224.12Z"/><path class="cls-2" d="M381.92,226.44s1.08-2.56,1.77-2.94,0.3,0.87.3,0.87,4.48-.18,3.11,5.06C387.1,229.44,386.31,226.24,381.92,226.44Z"/><path class="cls-2" d="M368.57,242.2a4.87,4.87,0,0,0,4.88.21,6.32,6.32,0,0,0,1.75-1.28,20.63,20.63,0,0,0-7.54-6,8.71,8.71,0,0,0-.66,1.55C366.5,238.32,366.22,240.79,368.57,242.2Z"/><path class="cls-7" d="M367,236.71a14.1,14.1,0,0,1,6.44,5.71,6.32,6.32,0,0,0,1.75-1.28,20.63,20.63,0,0,0-7.54-6A8.71,8.71,0,0,0,367,236.71Z"/><ellipse class="cls-2" cx="372.06" cy="227.95" rx="2.64" ry="2.12" transform="translate(7.6 467.87) rotate(-64.85)"/><circle class="cls-7" cx="373.15" cy="227.81" r="0.73"/><ellipse class="cls-2" cx="382.33" cy="232.31" rx="2.64" ry="2.12" transform="translate(9.57 479.68) rotate(-64.85)"/><circle class="cls-7" cx="383.42" cy="232.17" r="0.73"/><path class="cls-2" d="M359.86,220.86c0.31,0.09,16.74,6.93,24.85-6.61s-8.32-13.65-18.23-9.81,0.85,4.59.85,4.59S350.79,218.19,359.86,220.86Z"/></svg>